<svg width="400" height="200" viewBox="0 0 400 200" fill="none" xmlns="http://www.w3.org/2000/svg">
  <!-- Criss-cross dotted lines -->
  <path d="M20 20 L380 20" stroke="#3B82F6" stroke-width="2" stroke-dasharray="5,5" />
  <path d="M20 60 L380 60" stroke="#3B82F6" stroke-width="2" stroke-dasharray="5,5" />
  <path d="M20 100 L380 100" stroke="#3B82F6" stroke-width="2" stroke-dasharray="5,5" />
  <path d="M20 140 L380 140" stroke="#3B82F6" stroke-width="2" stroke-dasharray="5,5" />
  <path d="M20 180 L380 180" stroke="#3B82F6" stroke-width="2" stroke-dasharray="5,5" />
  
  <!-- Vertical dotted lines to create criss-cross pattern -->
  <path d="M50 20 L50 180" stroke="#3B82F6" stroke-width="2" stroke-dasharray="5,5" />
  <path d="M100 20 L100 180" stroke="#3B82F6" stroke-width="2" stroke-dasharray="5,5" />
  <path d="M150 20 L150 180" stroke="#3B82F6" stroke-width="2" stroke-dasharray="5,5" />
  <path d="M200 20 L200 180" stroke="#3B82F6" stroke-width="2" stroke-dasharray="5,5" />
  <path d="M250 20 L250 180" stroke="#3B82F6" stroke-width="2" stroke-dasharray="5,5" />
  <path d="M300 20 L300 180" stroke="#3B82F6" stroke-width="2" stroke-dasharray="5,5" />
  <path d="M350 20 L350 180" stroke="#3B82F6" stroke-width="2" stroke-dasharray="5,5" />
  
  <!-- Curved arrow pointing right -->
  <path d="M200 100 C 250 80, 280 120, 320 100" stroke="#3B82F6" stroke-width="3" fill="none" marker-end="url(#arrowhead)" />
  
  <!-- Arrowhead definition -->
  <defs>
    <marker id="arrowhead" markerWidth="10" markerHeight="7" refX="9" refY="3.5" orient="auto">
      <polygon points="0 0, 10 3.5, 0 7" fill="#3B82F6"/>
    </marker>
  </defs>
</svg>